<svg width="17" height="17" viewBox="0 0 17 17" fill="none" xmlns="http://www.w3.org/2000/svg">
<path d="M3.98501 8.43803V1.47103H13.037V8.43803L15.944 6.82303L14.044 5.70803V0.965027C14.044 0.832419 13.9913 0.705242 13.8976 0.611473C13.8038 0.517705 13.6766 0.465027 13.544 0.465027H3.48201C3.3494 0.465027 3.22223 0.517705 3.12846 0.611473C3.03469 0.705242 2.98201 0.832419 2.98201 0.965027V5.70603L1.06201 6.81503L3.98501 8.43803Z" fill="#F5222D"/>
<path d="M8.75497 11.9671C8.6804 12.0087 8.59639 12.0306 8.51097 12.0306C8.42554 12.0306 8.34153 12.0087 8.26697 11.9671L0.464966 7.63306V16.0531C0.464966 16.1857 0.517644 16.3128 0.611412 16.4066C0.705181 16.5004 0.832358 16.5531 0.964966 16.5531H16.054C16.1866 16.5531 16.3138 16.5004 16.4075 16.4066C16.5013 16.3128 16.554 16.1857 16.554 16.0531V7.63306L8.75497 11.9671Z" fill="#F5222D"/>
<path d="M7.00191 7.71305L5.13791 5.84905C5.09089 5.80255 5.05357 5.74719 5.02809 5.68616C5.00262 5.62514 4.9895 5.55967 4.9895 5.49355C4.9895 5.42742 5.00262 5.36195 5.02809 5.30093C5.05357 5.23991 5.09089 5.18455 5.13791 5.13805L7.00191 3.27405L7.71291 3.98505L6.20491 5.49405L7.71391 7.00305L7.00191 7.71305Z" fill="#F5222D"/>
<path d="M10.0219 7.71304L9.31086 7.00204L10.8199 5.49304L9.30786 3.98804L10.0189 3.27704L11.8829 5.13804C11.9299 5.18454 11.9672 5.2399 11.9927 5.30092C12.0181 5.36194 12.0313 5.42741 12.0313 5.49354C12.0313 5.55966 12.0181 5.62513 11.9927 5.68615C11.9672 5.74718 11.9299 5.80254 11.8829 5.84904L10.0219 7.71304Z" fill="#F5222D"/>
</svg>
