<svg width="18" height="18" viewBox="0 0 18 18" fill="none" xmlns="http://www.w3.org/2000/svg">
<path d="M10.624 9.54102H7.37596C7.30492 9.54102 7.23457 9.55501 7.16893 9.5822C7.10329 9.60938 7.04365 9.64923 6.99342 9.69947C6.94318 9.74971 6.90333 9.80935 6.87614 9.87498C6.84895 9.94062 6.83496 10.011 6.83496 10.082V17.118C6.83496 17.1891 6.84895 17.2594 6.87614 17.325C6.90333 17.3907 6.94318 17.4503 6.99342 17.5006C7.04365 17.5508 7.10329 17.5906 7.16893 17.6178C7.23457 17.645 7.30492 17.659 7.37596 17.659H10.624C10.7674 17.659 10.905 17.602 11.0065 17.5006C11.108 17.3991 11.165 17.2615 11.165 17.118V10.082C11.165 9.93853 11.108 9.80093 11.0065 9.69947C10.905 9.59801 10.7674 9.54102 10.624 9.54102Z" fill="#1890FF"/>
<path d="M4.12897 12.789H0.880966C0.737484 12.789 0.599878 12.846 0.498421 12.9475C0.396964 13.0489 0.339966 13.1865 0.339966 13.33L0.339966 17.119C0.339966 17.2625 0.396964 17.4001 0.498421 17.5015C0.599878 17.603 0.737484 17.66 0.880966 17.66H4.12897C4.27245 17.66 4.41005 17.603 4.51151 17.5015C4.61297 17.4001 4.66997 17.2625 4.66997 17.119V13.33C4.66997 13.1865 4.61297 13.0489 4.51151 12.9475C4.41005 12.846 4.27245 12.789 4.12897 12.789Z" fill="#1890FF"/>
<path d="M17.119 6.29401H13.871C13.7999 6.29401 13.7296 6.308 13.6639 6.33519C13.5983 6.36238 13.5386 6.40222 13.4884 6.45246C13.4382 6.5027 13.3983 6.56234 13.3711 6.62797C13.3439 6.69361 13.33 6.76396 13.33 6.83501V17.119C13.33 17.1901 13.3439 17.2604 13.3711 17.326C13.3983 17.3917 13.4382 17.4513 13.4884 17.5016C13.5386 17.5518 13.5983 17.5916 13.6639 17.6188C13.7296 17.646 13.7999 17.66 13.871 17.66H17.119C17.2624 17.66 17.4 17.603 17.5015 17.5016C17.603 17.4001 17.66 17.2625 17.66 17.119V6.83501C17.66 6.69152 17.603 6.55392 17.5015 6.45246C17.4 6.351 17.2624 6.29401 17.119 6.29401Z" fill="#1890FF"/>
<path d="M8.99996 6.84003C9.07112 6.84007 9.1416 6.82605 9.20733 6.79876C9.27306 6.77147 9.33274 6.73146 9.38296 6.68103L13.872 2.18803V4.67003H14.955V0.881031C14.955 0.809817 14.9409 0.739304 14.9136 0.673536C14.8863 0.607768 14.8462 0.54804 14.7958 0.497777C14.7453 0.447514 14.6855 0.407706 14.6196 0.380636C14.5537 0.353566 14.4832 0.339767 14.412 0.340031H10.624V1.42303H13.106L8.99996 5.52903L6.67696 3.20503C6.5755 3.1036 6.43792 3.04662 6.29446 3.04662C6.151 3.04662 6.01341 3.1036 5.91196 3.20503L3.20496 5.91103L3.96996 6.67603L6.29396 4.35303L8.61796 6.67703C8.66772 6.72807 8.7271 6.76875 8.79266 6.79672C8.85822 6.8247 8.92868 6.83942 8.99996 6.84003Z" fill="#1890FF"/>
</svg>
